<svg xmlns="http://www.w3.org/2000/svg" viewBox="0 0 100 100">
  <defs>
    <linearGradient id="g" x1="0%" y1="0%" x2="100%" y2="100%">
      <stop offset="0%" style="stop-color:#6366f1"/>
      <stop offset="100%" style="stop-color:#d946ef"/>
    </linearGradient>
  </defs>
  <rect width="100" height="100" rx="20" fill="url(#g)"/>
  <path d="M50 25c-8 0-15 5-18 12h-4c-3 0-5 2-5 5v26c0 3 2 5 5 5h44c3 0 5-2 5-5V42c0-3-2-5-5-5h-4c-3-7-10-12-18-12zm0 8c6 0 12 5 12 12s-5 12-12 12-12-5-12-12 5-12 12-12zm0 6c-3 0-6 3-6 6s3 6 6 6 6-3 6-6-3-6-6-6z" fill="white"/>
</svg>
